Music_Route209:
	musicheader 4, 1, Music_Route209_Ch1
	musicheader 1, 2, Music_Route209_Ch2
	musicheader 1, 3, Music_Route209_Ch3
	musicheader 1, 4, Music_Route209_Ch4

Music_Route209_Ch1:
	tempo $90
	volume $77
	stereopanning $77
	notetype $C, $00
	note __, 2
Music_Route209_Ch1_loop:
	dutycycle 1
	intensity $B4
	vibrato $10, $36
	octave 3
	note D_, 6
	octave 2
	note B_, 4
	octave 3
	note G_, 2
	note A_, 2
	note B_, 4
	octave 4
	note C_, 2
	octave 3
	note B_, 2
	note A_, 2
	note G_, 2
	note D_, 2
	note G_, 2
	octave 4
	note D_, 4
	octave 3
	note G_, 2
	note B_, 4
	octave 4
	note C_, 2
	octave 3
	note B_, 2
	octave 4
	note C_, 2
	note D_, 4
	octave 3
	note A#, 2
	note A_, 2
	note G_, 2
	note D#, 2
	note G_, 2
	note A#, 2
	note A_, 2
	note G_, 2
	note B_, 2
	octave 4
	note D_, 2
	octave 3
	note G_, 2
	note B_, 2
	octave 4
	note D_, 2
	octave 3
	note G_, 2
	note B_, 2
	note G_, 2
	note B_, 2
	octave 4
	note D_, 2
	octave 3
	note G_, 2
	note B_, 2
	octave 4
	note D_, 2
	octave 3
	note G_, 2
	note B_, 2
	note D_, 6
	octave 2
	note B_, 6
	octave 3
	note D_, 2
	note G_, 2
	note B_, 2
	note A_, 2
	note G_, 2
	octave 2
	note B_, 4
	octave 3
	note D_, 2
	note F#, 4
	note E_, 6
	octave 2
	note G_, 6
	octave 3
	note C_, 2
	note F#, 2
	note D_, 2
	octave 2
	note A_, 2
	octave 3
	note D_, 2
	note E_, 4
	note D_, 2
	octave 2
	note A_, 2
	octave 3
	note D_, 2
	note F#, 2
	note D_, 4
	octave 2
	note B_, 6
	octave 3
	note G_, 2
	note A_, 2
	note B_, 2
	note A_, 2
	note G_, 2
	octave 2
	note B_, 4
	octave 3
	note D_, 2
	note F#, 4
	note E_, 6
	octave 2
	note G_, 6
	octave 3
	note C_, 2
	note F#, 2
	note D#, 2
	octave 2
	note B_, 2
	octave 3
	note D#, 2
	note F#, 4
	note D#, 2
	octave 2
	note B_, 4
	octave 3
	note E_, 2
	octave 2
	note B_, 2
	note G_, 2
	octave 3
	note E_, 4
	octave 2
	note B_, 2
	note G_, 2
	note B_, 2
	octave 3
	note D#, 6
	octave 2
	note B_, 4
	note F#, 2
	octave 3
	note D#, 2
	octave 2
	note B_, 2
	octave 3
	note D_, 6
	note F#, 6
	note B_, 4
	octave 4
	note C#, 2
	octave 3
	note E_, 2
	note G_, 2
	note A_, 4
	octave 2
	note A_, 2
	note B_, 2
	octave 3
	note C#, 2
	octave 2
	note G_, 4
	octave 3
	note C_, 2
	note D_, 4
	octave 2
	note A_, 4
	octave 3
	note D#, 4
	octave 2
	note A#, 2
	octave 3
	note D#, 2
	note F_, 4
	note C_, 2
	note G_, 2
	note D_, 2
	note G_, 2
	note B_, 2
	note D_, 2
	note G_, 2
	note B_, 2
	note D_, 2
	note G_, 2
	note B_, 2
	note D_, 2
	note G_, 2
	note B_, 2
	note D_, 2
	note G_, 2
	note B_, 2
	note D_, 2
	note G_, 2
	octave 2
	note B_, 6
	octave 3
	note D_, 6
	note G_, 4
	note B_, 6
	note G_, 4
	octave 2
	note B_, 2
	octave 3
	note D_, 2
	note E_, 2
	note C_, 6
	octave 2
	note B_, 6
	octave 3
	note E_, 4
	note G_, 2
	note D_, 4
	octave 2
	note B_, 2
	note B_, 2
	octave 3
	note D_, 2
	note E_, 2
	note D_, 2
	note D_, 2
	octave 2
	note B_, 4
	octave 3
	note D_, 6
	note G_, 4
	note E_, 6
	octave 2
	note B_, 4
	note B_, 2
	octave 3
	note D_, 2
	note E_, 2
	note C_, 6
	note E_, 4
	note C_, 2
	note G_, 2
	note E_, 2
	note D_, 6
	octave 2
	note A_, 4
	octave 3
	note D_, 2
	note G_, 2
	note D_, 2
	octave 2
	note G_, 2
	note B_, 2
	octave 3
	note D_, 2
	octave 2
	note G_, 2
	note B_, 2
	octave 3
	note D_, 2
	octave 2
	note G_, 2
	note B_, 2
	note G_, 2
	note B_, 2
	octave 3
	note D_, 2
	octave 2
	note G_, 2
	note B_, 2
	octave 3
	note D_, 2
	octave 2
	note G_, 2
	note B_, 2
	loopchannel 0, Music_Route209_Ch1_loop

Music_Route209_Ch2:
	dutycycle 1
	vibrato $10, $36
	octave 3
	notetype $C, $C2
	note D_, 1
	note F#, 1
Music_Route209_Ch2_loop:
	vibrato $10, $36
	intensity $C4
	note G_, 6
	intensity $C5
	note D_, 2
	note B_, 2
	octave 4
	note C_, 2
	note D_, 2
	note G_, 6
	note D_, 4
	octave 3
	note B_, 2
	octave 4
	note C_, 2
	note D_, 2
	note G_, 6
	note D_, 4
	note B_, 2
	octave 5
	note C_, 2
	note D_, 2
	octave 4
	note G_, 6
	note D_, 4
	note A_, 2
	note A#, 2
	note A_, 2
	intensity $C0
	note G_, 16
	vibrato $00, $36
	note G_, 6
	intensity $C7
	note G_, 12
	intensity $C5
	vibrato $10, $36
	octave 3
	note G_, 6
	note D_, 6
	note B_, 2
	octave 4
	note C_, 2
	note D_, 4
	note E_, 2
	note D_, 4
	note C_, 2
	octave 3
	note B_, 2
	note A_, 2
	note G_, 6
	note D_, 6
	note G_, 2
	note A_, 6
	octave 4
	note C_, 4
	octave 3
	note B_, 4
	note G_, 4
	note A_, 2
	note G_, 4
	note D_, 6
	note B_, 2
	octave 4
	note C_, 2
	note D_, 4
	note E_, 2
	note D_, 4
	note C_, 2
	octave 3
	note B_, 2
	note A_, 2
	note G_, 6
	note D_, 6
	note G_, 2
	note A_, 6
	note B_, 4
	note A_, 4
	note G_, 4
	note F#, 6
	note G_, 6
	note F#, 2
	note E_, 2
	note F#, 6
	note G_, 6
	note F#, 2
	note E_, 2
	note F#, 6
	note B_, 6
	octave 4
	note D_, 4
	note F#, 1
	note G_, 9
	octave 3
	note D_, 2
	note G_, 2
	note F#, 2
	note G_, 2
	note D_, 2
	note G_, 2
	note F#, 4
	note G_, 2
	note A_, 2
	note A#, 4
	note A_, 2
	note A#, 2
	octave 4
	note C_, 4
	octave 3
	note A#, 2
	octave 4
	note C_, 2
	intensity $C0
	note D_, 16
	vibrato $00, $36
	note D_, 6
	intensity $C7
	note D_, 12
	intensity $C5
	vibrato $10, $36
	octave 3
	note G_, 2
	note D_, 4
	note G_, 6
	note B_, 2
	octave 4
	note C_, 2
	note D_, 4
	note E_, 2
	note D_, 4
	note C_, 2
	octave 3
	note B_, 2
	note A_, 2
	note G_, 2
	note D_, 4
	note G_, 6
	octave 4
	note C_, 2
	octave 3
	note B_, 4
	note G_, 4
	note D_, 2
	note D_, 2
	note G_, 2
	note A_, 2
	note G_, 2
	note G_, 2
	note D_, 4
	note G_, 6
	note B_, 2
	octave 4
	note C_, 2
	octave 3
	note B_, 2
	note A_, 2
	note G_, 2
	note D_, 4
	note G_, 2
	note B_, 2
	octave 4
	note C_, 2
	note D_, 2
	note D_, 4
	octave 3
	note G_, 6
	octave 4
	note E_, 2
	note D_, 2
	octave 3
	note B_, 2
	note G_, 4
	note D_, 4
	octave 4
	note C_, 2
	octave 3
	note B_, 2
	note G_, 2
	note A_, 2
	intensity $C0
	note G_, 16
	vibrato $00, $36
	note G_, 4
	intensity $C7
	note G_, 10
	loopchannel 0, Music_Route209_Ch2_loop

Music_Route209_Ch3:
	dutycycle 6
	octave 3
	notetype $C, $16
	note B_, 1
	note A_, 1
Music_Route209_Ch3_loop:
	note G_, 4
	note D_, 2
	note G_, 4
	note D_, 2
	note G_, 2
	note D_, 2
	note E_, 4
	octave 2
	note B_, 2
	octave 3
	note E_, 4
	octave 2
	note B_, 2
	octave 3
	note D_, 2
	octave 2
	note B_, 2
	octave 3
	note C_, 4
	octave 2
	note G_, 2
	octave 3
	note C_, 4
	octave 2
	note G_, 2
	octave 3
	note C_, 2
	note D_, 2
	note D#, 4
	octave 2
	note A#, 2
	octave 3
	note D#, 4
	note C_, 2
	note D_, 2
	note F_, 2
	note G_, 4
	note D_, 2
	note G_, 4
	note D_, 2
	note G_, 2
	note D_, 2
	note G_, 4
	note D_, 2
	note G_, 4
	note D_, 2
	note G_, 2
	note D_, 2
	note G_, 4
	note D_, 2
	note G_, 4
	note D_, 2
	note G_, 2
	note D_, 2
	note E_, 4
	octave 2
	note B_, 2
	octave 3
	note E_, 4
	octave 2
	note B_, 2
	octave 3
	note E_, 2
	octave 2
	note B_, 2
	octave 3
	note C_, 4
	octave 2
	note G_, 2
	octave 3
	note C_, 4
	octave 2
	note G_, 2
	octave 3
	note C_, 2
	octave 2
	note G_, 2
	octave 3
	note D_, 4
	octave 2
	note A_, 2
	octave 3
	note D_, 4
	octave 2
	note A_, 2
	octave 3
	note D_, 2
	octave 2
	note A_, 2
	octave 3
	note G_, 4
	note D_, 2
	note G_, 4
	note D_, 2
	note G_, 2
	note D_, 2
	note E_, 4
	octave 2
	note B_, 2
	octave 3
	note E_, 4
	octave 2
	note B_, 2
	octave 3
	note E_, 2
	octave 2
	note B_, 2
	octave 3
	note C_, 4
	octave 2
	note G_, 2
	octave 3
	note C_, 4
	octave 2
	note G_, 2
	octave 3
	note C_, 2
	octave 2
	note G_, 2
	note B_, 4
	note F#, 2
	note B_, 4
	note F#, 2
	note B_, 2
	note F#, 2
	octave 3
	note E_, 4
	octave 2
	note B_, 2
	octave 3
	note E_, 4
	octave 2
	note B_, 2
	octave 3
	note E_, 2
	octave 2
	note B_, 2
	octave 3
	note D#, 4
	octave 2
	note B_, 2
	octave 3
	note D#, 4
	octave 2
	note B_, 2
	octave 3
	note D#, 2
	octave 2
	note B_, 2
	octave 3
	note D_, 4
	octave 2
	note B_, 2
	octave 3
	note D_, 4
	octave 2
	note B_, 2
	octave 3
	note D_, 2
	octave 2
	note B_, 2
	octave 3
	note C#, 4
	octave 2
	note A_, 2
	octave 3
	note C#, 4
	octave 2
	note A_, 2
	octave 3
	note C#, 2
	octave 2
	note A_, 2
	octave 3
	note C_, 4
	octave 2
	note G_, 2
	octave 3
	note D_, 4
	octave 2
	note A_, 2
	octave 3
	note D_, 2
	octave 2
	note A#, 2
	octave 3
	note D#, 4
	octave 2
	note A#, 2
	octave 3
	note F_, 4
	note D#, 2
	note F_, 2
	note F#, 2
	note G_, 4
	note D_, 2
	note G_, 4
	note D_, 2
	note G_, 2
	note D_, 2
	note G_, 4
	note D_, 2
	note G_, 4
	note D_, 2
	note G_, 2
	note D_, 2
	note G_, 4
	note D_, 2
	note G_, 4
	note D_, 2
	note G_, 2
	note D_, 2
	note E_, 4
	octave 2
	note B_, 2
	octave 3
	note E_, 4
	octave 2
	note B_, 2
	octave 3
	note E_, 2
	octave 2
	note B_, 2
	octave 3
	note C_, 4
	octave 2
	note G_, 2
	octave 3
	note C_, 4
	octave 2
	note G_, 2
	octave 3
	note C_, 2
	octave 2
	note G_, 2
	octave 3
	note D_, 4
	octave 2
	note A_, 2
	octave 3
	note D_, 4
	octave 2
	note A_, 2
	octave 3
	note D_, 2
	octave 2
	note A_, 2
	octave 3
	note G_, 4
	note D_, 2
	note G_, 4
	note D_, 2
	note G_, 2
	note D_, 2
	note E_, 4
	octave 2
	note B_, 2
	octave 3
	note E_, 4
	octave 2
	note B_, 2
	octave 3
	note E_, 2
	octave 2
	note B_, 2
	octave 3
	note C_, 4
	octave 2
	note G_, 2
	octave 3
	note C_, 4
	octave 2
	note G_, 2
	octave 3
	note C_, 2
	octave 2
	note G_, 2
	octave 3
	note D_, 4
	octave 2
	note A_, 2
	octave 3
	note D_, 4
	octave 2
	note A_, 2
	octave 3
	note D_, 2
	note F#, 2
	note G_, 4
	note D_, 2
	note G_, 4
	note D_, 2
	note G_, 2
	note D_, 2
	note G_, 4
	note D_, 2
	note G_, 4
	note D_, 2
	note G_, 2
	note D_, 2
	loopchannel 0, Music_Route209_Ch3_loop

Music_Route209_Ch4:
	notetype $C
	note __, 2
	togglenoise 1
Music_Route209_Ch4_loop:
	notetype $C
	note A_, 4
	note A_, 6
	note A#, 1
	note A#, 1
	note A_, 2
	note A#, 2
	note A_, 4
	note A_, 6
	note A#, 1
	note A#, 1
	note A_, 2
	notetype $6
	note A#, 1
	note A#, 1
	note A_, 1
	note A_, 1
	note A_, 8
	note A_, 12
	note A#, 2
	note A#, 2
	note A_, 4
	note A#, 4
	note A_, 8
	note A_, 12
	note B_, 2
	note A#, 2
	note A_, 8
	note A_, 8
	note A_, 12
	note A#, 2
	note A#, 2
	note A_, 4
	note A#, 4
	note A_, 8
	note A_, 12
	note A#, 2
	note A#, 2
	note A_, 4
	note A#, 1
	note A#, 1
	note A_, 1
	note A_, 1
	note A_, 8
	note A_, 12
	note A#, 2
	note A#, 2
	note A_, 4
	note A#, 4
	note A_, 8
	note A_, 12
	note B_, 2
	note A#, 2
	note A_, 8
	note A_, 8
	note A_, 12
	note A#, 2
	note A#, 2
	note A_, 4
	note A#, 4
	note A_, 8
	note A_, 12
	note A#, 2
	note A#, 2
	note A_, 4
	note A#, 1
	note A#, 1
	note A_, 1
	note A_, 1
	note A#, 8
	note A_, 4
	note F_, 8
	note B_, 2
	note B_, 2
	note A_, 8
	note A#, 8
	note A_, 4
	note F_, 8
	note B_, 2
	note B_, 2
	note A_, 8
	note A#, 8
	note A_, 4
	note F_, 8
	note B_, 2
	note B_, 2
	note A_, 8
	note A#, 8
	note A_, 4
	note F_, 8
	note B_, 2
	note B_, 2
	note A_, 8
	note A#, 8
	note A_, 4
	note F_, 8
	note B_, 2
	note B_, 2
	note A_, 8
	note A#, 8
	note A_, 4
	note F_, 8
	note B_, 2
	note B_, 2
	note A_, 8
	note A#, 8
	note A_, 4
	note F_, 8
	note B_, 2
	note B_, 2
	note A_, 8
	note A#, 8
	note A_, 4
	note F_, 8
	note B_, 2
	note B_, 2
	note A_, 8
	note A#, 8
	note A_, 4
	note F_, 8
	note B_, 2
	note B_, 2
	note A_, 8
	note A#, 8
	note A_, 4
	note F_, 8
	note B_, 2
	note B_, 2
	note A_, 8
	note A#, 8
	note A_, 4
	note F_, 8
	note B_, 2
	note B_, 2
	note A_, 8
	note A_, 8
	note A_, 12
	note A#, 2
	note A#, 2
	note A_, 4
	note A#, 1
	note A#, 1
	note A_, 1
	note A_, 1
	note A#, 8
	note A_, 4
	note F_, 8
	note B_, 2
	note B_, 2
	note A_, 8
	note A#, 8
	note A_, 4
	note F_, 8
	note B_, 2
	note B_, 2
	note A_, 8
	note A#, 8
	note A_, 4
	note F_, 8
	note B_, 2
	note B_, 2
	note A_, 8
	note A#, 8
	note A_, 4
	note F_, 8
	note B_, 2
	note B_, 2
	note A_, 8
	note A#, 8
	note A_, 4
	note F_, 8
	note B_, 2
	note B_, 2
	note A_, 8
	note A#, 8
	note A_, 4
	note F_, 8
	note B_, 2
	note B_, 2
	note A_, 8
	note A#, 8
	note A_, 4
	note F_, 8
	note B_, 2
	note B_, 2
	note A_, 8
	note A#, 8
	note A_, 4
	note F_, 8
	note B_, 2
	note B_, 2
	note A_, 8
	note A_, 8
	note A_, 12
	note A#, 2
	note A#, 2
	note A_, 4
	note A#, 4
	note A_, 8
	note A_, 12
	note A#, 2
	note A#, 2
	note A_, 4
	note A#, 1
	note A#, 1
	note A_, 1
	note A_, 1
	loopchannel 0, Music_Route209_Ch4_loop

